<svg width="111" height="110" viewBox="0 0 111 110" fill="none" xmlns="http://www.w3.org/2000/svg">
<path d="M98.2845 54.8708L106.986 55.5435L106.555 61.1177L105.234 61.0156L105.543 57.0176L103.18 56.835L102.901 60.4506L101.58 60.3485L101.859 56.7328L98.1627 56.4471L98.2845 54.8708Z" fill="black"/>
<path d="M100.061 70.1803C99.1515 69.9412 98.4174 69.5661 97.8585 69.055C97.3017 68.5473 96.9284 67.9557 96.7388 67.2802C96.5485 66.6075 96.5505 65.9015 96.7448 65.1624C96.939 64.4233 97.2848 63.8063 97.7821 63.3114C98.2814 62.8199 98.8987 62.4886 99.6339 62.3177C100.371 62.1502 101.193 62.1856 102.1 62.4239C103.009 62.663 103.742 63.0363 104.299 63.544C104.858 64.0552 105.233 64.6471 105.423 65.3199C105.613 65.9954 105.61 66.7027 105.416 67.4418C105.222 68.1809 104.876 68.7965 104.38 69.2888C103.883 69.7837 103.265 70.1149 102.528 70.2824C101.793 70.4534 100.97 70.4194 100.061 70.1803ZM100.465 68.643C101.105 68.8113 101.672 68.853 102.164 68.7679C102.658 68.6864 103.064 68.4994 103.382 68.2069C103.703 67.9152 103.923 67.5399 104.044 67.081C104.164 66.6222 104.157 66.187 104.021 65.7753C103.888 65.3644 103.627 65.0005 103.237 64.6837C102.85 64.3703 102.336 64.1295 101.696 63.9612C101.056 63.7929 100.488 63.7495 99.994 63.8311C99.5016 63.9161 99.0952 64.1045 98.7747 64.3962C98.457 64.6887 98.2378 65.0643 98.1172 65.5232C97.9966 65.982 98.0027 66.4169 98.1355 66.8278C98.2711 67.2394 98.5327 67.602 98.9203 67.9153C99.31 68.2322 99.8249 68.4748 100.465 68.643Z" fill="black"/>
<path d="M95.4959 69.8596L103.401 73.5564L102.015 76.5211C101.731 77.1284 101.387 77.5886 100.984 77.9017C100.579 78.2173 100.137 78.3916 99.6573 78.4245C99.1792 78.4612 98.6879 78.3616 98.1835 78.1258C97.6765 77.8887 97.287 77.5748 97.0149 77.1842C96.7442 76.7973 96.6047 76.3479 96.5964 75.8359C96.5906 75.3251 96.7297 74.7661 97.0137 74.1587L98.0011 72.0472L99.19 72.6032L98.2929 74.5217C98.1268 74.8768 98.0397 75.1905 98.0316 75.4627C98.0261 75.7361 98.0933 75.9714 98.2332 76.1685C98.3744 76.3694 98.5853 76.5354 98.8658 76.6666C99.1463 76.7978 99.4115 76.8544 99.6614 76.8364C99.9139 76.8196 100.145 76.722 100.353 76.5437C100.565 76.3666 100.754 76.0992 100.921 75.7414L101.535 74.429L94.8262 71.2917L95.4959 69.8596ZM97.1683 75.6188L92.6709 75.9008L93.4182 74.3027L97.8994 74.0554L97.1683 75.6188Z" fill="black"/>
<path d="M97.2829 82.4318L98.3314 83.2424L94.0728 88.7513L93.0243 87.9407L94.674 85.8066L88.8178 81.2795L89.7769 80.0389L95.6331 84.5659L97.2829 82.4318Z" fill="black"/>
<path d="M87.0412 83.5639L92.9374 89.9982L91.7718 91.0663L89.2757 88.3424L86.2942 91.0746L88.7903 93.7985L87.6216 94.8695L81.7254 88.4352L82.8941 87.3642L85.3989 90.0975L88.3804 87.3653L85.8756 84.632L87.0412 83.5639Z" fill="black"/>
<path d="M81.2727 88.7279L86.0116 96.0566L81.2451 99.1387L80.5255 98.0258L83.9643 95.8021L82.6778 93.8125L79.4859 95.8765L78.7662 94.7636L81.9582 92.6996L80.6647 90.6993L77.1972 92.9415L76.4776 91.8286L81.2727 88.7279Z" fill="black"/>
<path d="M76.2405 101.822L74.4049 102.434L69.9492 97.2518L69.8522 97.2841L69.3913 104.103L67.5557 104.714L64.7991 96.4331L66.2385 95.954L68.1323 101.643L68.2091 101.617L68.6119 95.1908L69.6874 94.8328L73.8656 99.7477L73.9424 99.7221L72.0446 94.0212L73.484 93.542L76.2405 101.822Z" fill="black"/>
<path d="M57.2254 101.652C57.1205 100.718 57.2057 99.8978 57.481 99.1923C57.7538 98.4898 58.171 97.9284 58.7328 97.508C59.2917 97.0879 59.9508 96.8353 60.7103 96.75C61.4697 96.6648 62.1699 96.7648 62.8108 97.0502C63.4493 97.3388 63.9808 97.7951 64.4053 98.4193C64.8274 99.0465 65.0907 99.826 65.1953 100.758C65.3002 101.692 65.2162 102.511 64.9434 103.213C64.6682 103.919 64.2511 104.481 63.6922 104.901C63.1305 105.322 62.4699 105.575 61.7104 105.66C60.951 105.745 60.2522 105.645 59.6141 105.359C58.9731 105.074 58.4416 104.618 58.0196 103.99C57.5951 103.366 57.3303 102.587 57.2254 101.652ZM58.805 101.475C58.8788 102.133 59.0442 102.676 59.301 103.105C59.5553 103.536 59.8761 103.848 60.2634 104.039C60.6511 104.232 61.0807 104.303 61.5521 104.25C62.0236 104.197 62.4269 104.033 62.7619 103.758C63.0973 103.486 63.3425 103.111 63.4976 102.633C63.6502 102.159 63.6895 101.593 63.6157 100.935C63.5419 100.277 63.3778 99.7324 63.1235 99.3007C62.8667 98.8721 62.5445 98.561 62.1568 98.3672C61.7694 98.1763 61.34 98.1073 60.8686 98.1602C60.3971 98.2131 59.9937 98.3756 59.6583 98.6477C59.3232 98.9226 59.0794 99.2973 58.9268 99.7718C58.7718 100.249 58.7312 100.817 58.805 101.475Z" fill="black"/>
<path d="M47.6651 101.004C47.7484 100.067 47.9952 99.2806 48.4055 98.644C48.8127 98.0099 49.3334 97.5428 49.9676 97.2427C50.5989 96.9424 51.2952 96.826 52.0564 96.8937C52.8176 96.9614 53.4839 97.1989 54.0551 97.6062C54.6233 98.0161 55.0533 98.5692 55.345 99.2654C55.6337 99.9642 55.7365 100.78 55.6535 101.714C55.5702 102.651 55.3249 103.436 54.9177 104.07C54.5074 104.707 53.9866 105.175 53.3553 105.476C52.7211 105.776 52.0234 105.892 51.2622 105.824C50.501 105.757 49.8362 105.519 49.2677 105.112C48.6964 104.705 48.2665 104.152 47.9778 103.453C47.686 102.757 47.5818 101.94 47.6651 101.004ZM49.2484 101.145C49.1897 101.804 49.2436 102.369 49.4099 102.84C49.5731 103.314 49.8255 103.683 50.1671 103.947C50.5084 104.214 50.9153 104.369 51.3879 104.411C51.8604 104.453 52.2883 104.373 52.6714 104.17C53.0542 103.97 53.3692 103.652 53.6163 103.214C53.8603 102.78 54.0116 102.233 54.0702 101.573C54.1289 100.914 54.0766 100.348 53.9134 99.8739C53.747 99.4028 53.4932 99.0337 53.1519 98.7666C52.8103 98.5023 52.4033 98.3492 51.9307 98.3072C51.4581 98.2652 51.0304 98.3441 50.6476 98.5439C50.2645 98.7465 49.9509 99.0652 49.7069 99.4998C49.4599 99.937 49.307 100.485 49.2484 101.145Z" fill="black"/>
<path d="M37.9816 102.895L40.3918 94.5069L41.7433 94.8953L44.0539 101.744L44.1236 101.764L45.7652 96.0509L47.2847 96.4875L44.8746 104.875L43.5148 104.485L41.2095 97.6327L41.1358 97.6115L39.4929 103.329L37.9816 102.895Z" fill="black"/>
<path d="M30.3222 96.4403C30.1748 96.7842 30.1791 97.119 30.3352 97.4444C30.4889 97.7685 30.7701 98.0453 31.1789 98.2747C31.4662 98.436 31.7371 98.531 31.9914 98.5597C32.2456 98.5884 32.469 98.559 32.6614 98.4716C32.8539 98.3841 33.0049 98.2457 33.1144 98.0564C33.2034 97.8978 33.2447 97.7401 33.2382 97.5834C33.2292 97.4252 33.1845 97.2698 33.104 97.1172C33.0222 96.967 32.9198 96.8215 32.7968 96.6808C32.6738 96.5401 32.5446 96.4073 32.4094 96.2826L31.7961 95.7037C31.5462 95.4756 31.3208 95.2301 31.1197 94.9673C30.9161 94.7032 30.7577 94.4253 30.6444 94.1337C30.5287 93.8407 30.4778 93.5368 30.4915 93.2221C30.5053 92.9073 30.6047 92.5851 30.7897 92.2557C31.0399 91.8097 31.3743 91.481 31.7927 91.2696C32.2097 91.0606 32.6873 90.9817 33.2254 91.0329C33.7597 91.0852 34.3315 91.2823 34.941 91.6244C35.5331 91.9567 35.9957 92.3369 36.3288 92.765C36.6594 93.1917 36.8486 93.6497 36.8964 94.1392C36.9418 94.6272 36.8325 95.1295 36.5686 95.646L35.2123 94.8847C35.3413 94.6085 35.3833 94.3421 35.3383 94.0856C35.2934 93.829 35.18 93.5927 34.9983 93.3767C34.8141 93.1593 34.5783 92.9699 34.2909 92.8086C33.9912 92.6404 33.7035 92.5376 33.428 92.5002C33.1487 92.464 32.8994 92.4902 32.6802 92.5789C32.4596 92.6701 32.2869 92.824 32.162 93.0406C32.0533 93.2402 32.0197 93.4364 32.0614 93.6292C32.1016 93.8244 32.2002 94.0231 32.3572 94.2253C32.5103 94.4285 32.7036 94.6412 32.9372 94.8635L33.6778 95.5725C34.2142 96.0853 34.5727 96.6074 34.7533 97.1389C34.9301 97.6714 34.8655 98.2101 34.5596 98.7551C34.3079 99.2035 33.9661 99.5281 33.5342 99.7287C33.0999 99.928 32.62 100.002 32.0945 99.9517C31.5677 99.9036 31.038 99.7301 30.5053 99.4311C29.9653 99.128 29.545 98.7682 29.2444 98.3519C28.9399 97.9367 28.7644 97.4977 28.7178 97.035C28.6699 96.5748 28.7625 96.1284 28.9956 95.6956L30.3222 96.4403Z" fill="black"/>
<path d="M31.6967 89.9361L26.2094 96.7225L24.9801 95.7284L27.3031 92.8555L24.1584 90.3128L21.8354 93.1857L20.6027 92.189L26.09 85.4026L27.3227 86.3993L24.9917 89.2822L28.1363 91.8249L30.4674 88.942L31.6967 89.9361Z" fill="black"/>
<path d="M17.434 82.0245C18.1521 81.4174 18.8809 81.032 19.6203 80.8681C20.3558 80.704 21.0544 80.7384 21.7163 80.9712C22.3763 81.2019 22.953 81.6091 23.4463 82.1927C23.9397 82.7763 24.2461 83.4138 24.3655 84.1052C24.481 84.7962 24.3975 85.4917 24.1151 86.1918C23.8287 86.8914 23.3275 87.5439 22.6115 88.1492C21.8934 88.7562 21.1666 89.1418 20.4312 89.306C19.6917 89.4698 18.992 89.4363 18.332 89.2057C17.6701 88.9728 17.0925 88.5646 16.5992 87.9809C16.1058 87.3973 15.8003 86.7609 15.6827 86.0717C15.5632 85.3803 15.6467 84.6848 15.9332 83.9851C16.2156 83.2851 16.7159 82.6315 17.434 82.0245ZM18.4601 83.2383C17.9546 83.6657 17.5952 84.1053 17.382 84.5571C17.1648 85.0086 17.0846 85.4484 17.1414 85.8765C17.1961 86.3064 17.3766 86.7025 17.6829 87.0648C17.9892 87.4272 18.3497 87.6711 18.7645 87.7965C19.1772 87.9238 19.6251 87.919 20.1083 87.7821C20.5875 87.6449 21.0799 87.3626 21.5854 86.9353C22.0909 86.5079 22.4522 86.0685 22.6695 85.617C22.8827 85.1652 22.962 84.7243 22.9073 84.2944C22.8505 83.8663 22.6689 83.4711 22.3626 83.1088C22.0563 82.7465 21.6969 82.5017 21.2842 82.3743C20.8694 82.2489 20.4224 82.2547 19.9432 82.392C19.46 82.5289 18.9656 82.811 18.4601 83.2383Z" fill="black"/>
<path d="M12.7511 73.8717C13.5761 73.4206 14.3673 73.1887 15.1245 73.1761C15.8779 73.1624 16.5556 73.3358 17.1575 73.6963C17.758 74.0544 18.2416 74.5687 18.6082 75.2392C18.9749 75.9097 19.1476 76.5956 19.1263 77.2969C19.1012 77.997 18.8803 78.6618 18.4636 79.2912C18.043 79.9195 17.4214 80.4585 16.5988 80.9083C15.7738 81.3594 14.9846 81.5919 14.2312 81.6056C13.4739 81.6182 12.795 81.4455 12.1945 81.0874C11.5926 80.7269 11.1083 80.2113 10.7416 79.5408C10.375 78.8703 10.203 78.1857 10.2256 77.4869C10.2468 76.7856 10.4678 76.1208 10.8884 75.4925C11.3051 74.8631 11.926 74.3229 12.7511 73.8717ZM13.5137 75.2663C12.9329 75.5839 12.4928 75.9427 12.1935 76.3428C11.8904 76.7417 11.7238 77.1565 11.6939 77.5873C11.6615 78.0195 11.7591 78.4437 11.9867 78.86C12.2143 79.2763 12.5188 79.5874 12.9002 79.7933C13.279 80.0006 13.7188 80.0855 14.2196 80.048C14.7166 80.0094 15.2555 79.8313 15.8362 79.5137C16.417 79.1961 16.859 78.8379 17.1621 78.4389C17.4615 78.0389 17.6273 77.6228 17.6597 77.1906C17.6897 76.7598 17.5908 76.3363 17.3632 75.92C17.1356 75.5037 16.8323 75.192 16.4535 74.9847C16.0721 74.7788 15.633 74.6951 15.136 74.7337C14.6352 74.7712 14.0944 74.9487 13.5137 75.2663Z" fill="black"/>
<path d="M9.40878 73.7279L8.15134 74.1465L5.95202 67.5399L7.20946 67.1213L8.06146 69.6806L15.0845 67.3427L15.5798 68.8306L8.55678 71.1685L9.40878 73.7279Z" fill="black"/>
<path d="M10.5939 56.2762L11.1134 62.1167L9.9079 62.2239L9.38848 56.3834L10.5939 56.2762ZM12.6026 57.4066L8.84145 61.8739L7.91627 61.0919L11.6774 56.6247L12.6026 57.4066ZM7.30636 58.9001L13.0833 58.3864L13.1912 59.6003L7.41395 60.1098L7.30636 58.9001ZM12.891 60.6495L12.1183 61.5824L7.62787 57.8491L8.40054 56.9161L12.891 60.6495Z" fill="black"/>
<path d="M13.1567 51.6871L4.51788 50.4476L5.31197 44.9133L6.62382 45.1016L6.05427 49.0708L8.39957 49.4074L8.91464 45.8177L10.2265 46.0059L9.71142 49.5956L13.3812 50.1222L13.1567 51.6871Z" fill="black"/>
<path d="M12.4176 36.2264C13.3087 36.5268 14.0156 36.9509 14.5384 37.4989C15.0594 38.0433 15.3916 38.6589 15.5348 39.3458C15.6789 40.0299 15.6289 40.7341 15.3848 41.4582C15.1407 42.1824 14.7537 42.7745 14.2239 43.2345C13.6924 43.6908 13.054 43.9793 12.3088 44.0999C11.5619 44.2168 10.7442 44.1256 9.85582 43.8261C8.96475 43.5257 8.2587 43.1034 7.73768 42.559C7.21487 42.011 6.88141 41.3949 6.73728 40.7108C6.59406 40.0239 6.64451 39.3184 6.88862 38.5943C7.13273 37.8701 7.51923 37.2794 8.04812 36.8221C8.57792 36.3621 9.21629 36.0736 9.96324 35.9567C10.7084 35.8361 11.5265 35.926 12.4176 36.2264ZM11.9099 37.7326C11.2826 37.5212 10.7205 37.4411 10.2235 37.4924C9.72477 37.5402 9.30693 37.6991 8.97003 37.9693C8.63043 38.2386 8.38486 38.598 8.23331 39.0476C8.08176 39.4971 8.05963 39.9319 8.16692 40.3518C8.27151 40.7708 8.5074 41.1516 8.87458 41.4942C9.23997 41.8332 9.7363 42.1085 10.3635 42.3199C10.9908 42.5313 11.5538 42.6132 12.0526 42.5655C12.5495 42.5141 12.9678 42.3538 13.3074 42.0846C13.6443 41.8144 13.8886 41.4545 14.0401 41.005C14.1917 40.5554 14.2151 40.1211 14.1105 39.7021C14.0033 39.2822 13.7669 38.9027 13.4015 38.5637C13.0343 38.2211 12.5371 37.944 11.9099 37.7326Z" fill="black"/>
<path d="M16.8816 36.9743L9.23985 32.7589L10.8206 29.8933C11.1445 29.3062 11.5182 28.8699 11.9417 28.5844C12.3666 28.2965 12.8194 28.152 13.3001 28.1511C13.7796 28.1464 14.2632 28.2785 14.7507 28.5474C15.2408 28.8178 15.6085 29.1569 15.8539 29.5648C16.0982 29.9689 16.2075 30.4266 16.1817 30.938C16.1535 31.448 15.9774 31.9965 15.6536 32.5836L14.5277 34.6246L13.3784 33.9907L14.4014 32.1362C14.5908 31.7929 14.6986 31.4858 14.7248 31.2147C14.7485 30.9423 14.6972 30.7031 14.5707 30.4971C14.4432 30.2872 14.2438 30.1074 13.9727 29.9579C13.7015 29.8083 13.4407 29.7342 13.1902 29.7355C12.9371 29.7354 12.7005 29.8174 12.4802 29.9814C12.2575 30.144 12.0507 30.3982 11.86 30.744L11.1602 32.0127L17.6452 35.59L16.8816 36.9743ZM15.5966 31.1165L20.1028 31.1348L19.2507 32.6796L14.763 32.6277L15.5966 31.1165Z" fill="black"/>
<path d="M15.8735 24.3402L14.8803 23.4628L19.4906 18.2445L20.4838 19.122L18.6978 21.1435L24.245 26.0444L23.2067 27.2196L17.6595 22.3187L15.8735 24.3402Z" fill="black"/>
<path d="M26.2359 23.7912L20.7734 16.9848L22.0063 15.9953L24.3189 18.8767L27.4728 16.3454L25.1602 13.4641L26.3966 12.4718L31.8591 19.2782L30.6228 20.2704L28.3023 17.379L25.1484 19.9103L27.4689 22.8016L26.2359 23.7912Z" fill="black"/>
<path d="M32.229 19.0617L27.9854 11.4356L32.9453 8.67558L33.5897 9.83365L30.0113 11.8249L31.1633 13.8953L34.4849 12.047L35.1293 13.205L31.8077 15.0533L32.966 17.1349L36.5743 15.127L37.2187 16.2851L32.229 19.0617Z" fill="black"/>
<path d="M38.0052 6.32778L39.8763 5.83594L43.9897 11.2933L44.0887 11.2673L44.9867 4.49258L46.8578 4.00074L49.0765 12.4413L47.6093 12.8269L46.0851 7.0282L46.0068 7.04878L45.1918 13.436L44.0956 13.7242L40.2419 8.55095L40.1635 8.57153L41.6911 14.3826L40.2239 14.7683L38.0052 6.32778Z" fill="black"/>
<path d="M57.0216 7.6868C57.0651 8.62613 56.9264 9.43882 56.6056 10.1249C56.2874 10.8079 55.8343 11.3408 55.2463 11.7236C54.6611 12.1062 53.9868 12.3152 53.2234 12.3506C52.46 12.386 51.7679 12.2403 51.147 11.9136C50.5288 11.5839 50.0283 11.0937 49.6455 10.4431C49.2654 9.78958 49.0537 8.99455 49.0103 8.05805C48.9667 7.11872 49.104 6.30752 49.4222 5.62444C49.7431 4.9384 50.1961 4.40407 50.7813 4.02146C51.3693 3.63871 52.045 3.42965 52.8084 3.39428C53.5718 3.3589 54.2625 3.50464 54.8806 3.83149C55.5015 4.15821 56.002 4.64836 56.3821 5.30192C56.7649 5.95251 56.978 6.74747 57.0216 7.6868ZM55.4338 7.76038C55.4031 7.09916 55.2737 6.54632 55.0455 6.10186C54.82 5.65443 54.5202 5.32278 54.1462 5.10691C53.772 4.8882 53.348 4.78983 52.8741 4.81179C52.4002 4.83375 51.987 4.97092 51.6347 5.2233C51.2822 5.47284 51.013 5.83085 50.827 6.29735C50.6437 6.76088 50.5674 7.32325 50.5981 7.98447C50.6287 8.6457 50.7568 9.20002 50.9823 9.64745C51.2105 10.0919 51.5117 10.4235 51.8858 10.6422C52.2598 10.8581 52.6838 10.955 53.1577 10.9331C53.6317 10.9111 54.0449 10.7754 54.3973 10.5258C54.7497 10.2734 55.0175 9.91548 55.2007 9.45196C55.3867 8.98546 55.4644 8.4216 55.4338 7.76038Z" fill="black"/>
<path d="M66.3668 8.89238C66.2226 9.82159 65.925 10.5904 65.474 11.1989C65.0263 11.805 64.4762 12.2371 63.8238 12.4952C63.1742 12.7537 62.4718 12.8243 61.7166 12.7071C60.9615 12.5899 60.3121 12.3094 59.7687 11.8656C59.2284 11.4195 58.8355 10.8396 58.5898 10.1258C58.3474 9.4097 58.2981 8.58844 58.4419 7.66203C58.5861 6.73282 58.8821 5.96517 59.3298 5.35906C59.7808 4.75059 60.3311 4.31709 60.9807 4.05858C61.6331 3.8005 62.3369 3.73008 63.0921 3.84732C63.8473 3.96456 64.4952 4.24483 65.0358 4.68814C65.5793 5.13188 65.9723 5.71181 66.2147 6.42794C66.4604 7.14169 66.5111 7.96317 66.3668 8.89238ZM64.7962 8.64853C64.8977 7.99444 64.8809 7.4269 64.7457 6.94592C64.6137 6.46257 64.3859 6.0779 64.0624 5.79192C63.7392 5.50313 63.3432 5.32234 62.8744 5.24956C62.4056 5.17677 61.9734 5.22899 61.5779 5.40621C61.1828 5.58062 60.8478 5.8779 60.5727 6.29806C60.3008 6.71584 60.1141 7.25178 60.0126 7.90588C59.911 8.55998 59.9262 9.1287 60.0582 9.61205C60.1934 10.093 60.4225 10.4779 60.7457 10.7667C61.0693 11.0527 61.4655 11.2321 61.9343 11.3049C62.4031 11.3776 62.8351 11.3268 63.2301 11.1524C63.6256 10.9752 63.9593 10.6777 64.2312 10.2599C64.5063 9.83976 64.6946 9.30263 64.7962 8.64853Z" fill="black"/>
<path d="M76.4008 7.67488L73.4271 15.8799L72.105 15.4007L70.2644 8.41068L70.1963 8.386L68.1707 13.9749L66.6844 13.4362L69.6581 5.23115L70.9882 5.71322L72.8233 12.7058L72.8954 12.732L74.9224 7.13909L76.4008 7.67488Z" fill="black"/>
<path d="M83.5739 14.5598C83.7438 14.2263 83.7616 13.892 83.6274 13.557C83.4955 13.2235 83.2332 12.9287 82.8405 12.6727C82.5644 12.4928 82.3005 12.3801 82.0486 12.3346C81.7968 12.2891 81.572 12.3037 81.3742 12.3782C81.1764 12.4528 81.0166 12.5809 80.8948 12.7626C80.7955 12.9149 80.7439 13.0695 80.74 13.2263C80.7385 13.3847 80.7728 13.5428 80.843 13.7004C80.9147 13.8557 81.0073 14.0076 81.1207 14.1561C81.2342 14.3047 81.3542 14.4457 81.4809 14.5791L82.0546 15.1972C82.2888 15.4414 82.4975 15.7013 82.6808 15.9768C82.8665 16.2538 83.0062 16.5415 83.0999 16.84C83.196 17.14 83.2267 17.4466 83.1921 17.7598C83.1575 18.073 83.0371 18.3878 82.8308 18.7043C82.5515 19.1327 82.1962 19.4386 81.7647 19.6219C81.3347 19.8029 80.853 19.85 80.3194 19.7633C79.7898 19.6758 79.2322 19.4413 78.6468 19.0596C78.078 18.6889 77.6415 18.2789 77.3375 17.8297C77.0358 17.3822 76.8773 16.9126 76.8619 16.421C76.849 15.9311 76.9912 15.4371 77.2887 14.9392L78.5917 15.7886C78.4447 16.0556 78.3852 16.3186 78.4131 16.5776C78.441 16.8365 78.5385 17.0798 78.7055 17.3074C78.8749 17.5365 79.0977 17.741 79.3737 17.921C79.6617 18.1087 79.9419 18.2303 80.2143 18.2858C80.4907 18.3405 80.7411 18.3308 80.9657 18.2567C81.1919 18.1803 81.3744 18.0382 81.5133 17.8303C81.635 17.6384 81.6815 17.4448 81.6527 17.2497C81.6254 17.0522 81.5402 16.8474 81.3969 16.6354C81.2576 16.4225 81.0788 16.1974 80.8604 15.9601L80.1683 15.2037C79.667 14.6566 79.3438 14.1119 79.1987 13.5697C79.0576 13.0266 79.1577 12.4933 79.499 11.9697C79.7797 11.539 80.1422 11.2378 80.5865 11.0661C81.0331 10.896 81.5168 10.8536 82.0378 10.9388C82.5603 11.0217 83.0773 11.2299 83.589 11.5634C84.1079 11.9016 84.5035 12.2883 84.7759 12.7236C85.0522 13.1581 85.1983 13.6077 85.2142 14.0724C85.2315 14.5348 85.1096 14.9742 84.8484 15.3906L83.5739 14.5598Z" fill="black"/>
<path d="M81.7213 20.8713L87.6409 14.4586L88.8026 15.5309L86.2966 18.2457L89.2681 20.9887L91.7741 18.2739L92.9389 19.3492L87.0193 25.7619L85.8545 24.6867L88.3692 21.9625L85.3976 19.2195L82.883 21.9437L81.7213 20.8713Z" fill="black"/>
<path d="M95.5092 29.7159C94.7528 30.2746 94.0003 30.6115 93.2518 30.7264C92.5071 30.842 91.8123 30.7619 91.1671 30.4862C90.5236 30.2127 89.9749 29.7687 89.5208 29.154C89.0668 28.5393 88.8028 27.8831 88.7289 27.1853C88.659 26.4882 88.7879 25.7997 89.1156 25.1197C89.4473 24.4402 89.9902 23.822 90.7443 23.265C91.5006 22.7063 92.2511 22.3692 92.9958 22.2536C93.7443 22.1386 94.4404 22.2179 95.0838 22.4913C95.729 22.7671 96.2786 23.2123 96.7327 23.827C97.1867 24.4417 97.4498 25.0967 97.522 25.7922C97.5959 26.4899 97.467 27.1784 97.1353 27.8579C96.8076 28.5379 96.2656 29.1572 95.5092 29.7159ZM94.5648 28.4374C95.0973 28.0441 95.4847 27.629 95.7271 27.1922C95.9735 26.7559 96.0823 26.3223 96.0536 25.8914C96.0273 25.4588 95.8731 25.0517 95.5912 24.6701C95.3094 24.2885 94.9656 24.0215 94.5598 23.8691C94.1564 23.715 93.7091 23.6904 93.218 23.7953C92.7309 23.9009 92.2211 24.1503 91.6887 24.5435C91.1562 24.9368 90.7668 25.3516 90.5204 25.7879C90.278 26.2248 90.17 26.6595 90.1964 27.0921C90.2251 27.523 90.3804 27.9293 90.6622 28.3109C90.9441 28.6925 91.2868 28.9603 91.6902 29.1144C92.0959 29.2668 92.5423 29.2903 93.0295 29.1847C93.5206 29.0798 94.0324 28.8307 94.5648 28.4374Z" fill="black"/>
<path d="M99.7504 38.2986C98.8971 38.6937 98.0923 38.8723 97.3359 38.8344C96.5832 38.7979 95.9186 38.5797 95.3421 38.1798C94.7668 37.7825 94.3186 37.2371 93.9974 36.5437C93.6763 35.8502 93.5497 35.1543 93.6177 34.456C93.6894 33.7591 93.9541 33.1105 94.4119 32.5103C94.8735 31.9115 95.5296 31.4151 96.3803 31.0211C97.2336 30.626 98.0365 30.4467 98.7892 30.4832C99.5456 30.5211 100.211 30.7387 100.787 31.136C101.363 31.5359 101.812 32.0826 102.133 32.776C102.454 33.4695 102.58 34.1641 102.511 34.8598C102.443 35.5581 102.179 36.2067 101.717 36.8055C101.259 37.4057 100.604 37.9034 99.7504 38.2986ZM99.0825 36.8562C99.6831 36.5781 100.146 36.2494 100.471 35.8702C100.801 35.4924 100.994 35.0895 101.053 34.6617C101.114 34.2326 101.045 33.8028 100.846 33.3723C100.646 32.9418 100.363 32.6111 99.9964 32.3802C99.6322 32.1482 99.199 32.0341 98.6968 32.0381C98.1984 32.0435 97.6489 32.1853 97.0482 32.4635C96.4476 32.7416 95.9827 33.0696 95.6536 33.4474C95.3283 33.8266 95.1351 34.2308 95.0739 34.6598C95.0153 35.0877 95.0857 35.5169 95.2851 35.9474C95.4845 36.3779 95.7662 36.7092 96.1304 36.9413C96.4972 37.1721 96.9298 37.2849 97.4282 37.2795C97.9304 37.2755 98.4818 37.1344 99.0825 36.8562Z" fill="black"/>
<path d="M103.097 38.6933L104.38 38.3613L106.124 45.1023L104.841 45.4343L104.165 42.8229L96.9994 44.6775L96.6065 43.1593L103.772 41.3047L103.097 38.6933Z" fill="black"/>
<path d="M100.752 53.2039L100.255 47.3613L101.461 47.2588L101.958 53.1013L100.752 53.2039ZM98.7481 52.0657L102.526 47.613L103.449 48.3984L99.6702 52.8511L98.7481 52.0657ZM104.05 50.5926L98.2711 51.0841L98.1678 49.8697L103.947 49.3824L104.05 50.5926ZM98.4722 48.8217L99.2484 47.8918L103.724 51.6424L102.948 52.5723L98.4722 48.8217Z" fill="black"/>
</svg>
